<svg width="64" height="58" viewBox="0 0 64 58" fill="none" xmlns="http://www.w3.org/2000/svg">
<path fill-rule="evenodd" clip-rule="evenodd" d="M6.77934 0.0912028C7.2115 -0.00982004 7.78296 -0.013396 8.44205 0.0160623C11.5401 0.15453 14.5881 0.904485 17.4076 2.23095C20.9155 3.88125 23.961 6.37271 26.2732 9.48368C28.555 12.4548 30.2681 16.7055 30.7549 20.793L30.7552 20.7956C30.811 21.276 31.0411 21.7192 31.4018 22.0415C31.7622 22.3635 32.228 22.5423 32.7113 22.5444H48.7825C49.4045 22.5446 50.0173 22.6969 50.567 22.9878C51.1167 23.2788 51.587 23.6997 51.9368 24.2138L63.3379 40.9729C63.8544 41.7312 64.0804 42.6501 63.9745 43.5614C63.8685 44.4726 63.4377 45.3152 62.7609 45.9348C46.6732 60.6407 19.3907 61.2616 2.62841 46.8804L2.62761 46.8797C1.91475 46.2667 1.45321 45.4123 1.33142 44.4802C1.20963 43.548 1.43615 42.6038 1.96759 41.8283L12.7483 26.0875C12.9721 25.7612 13.0923 25.3742 13.0922 24.9785C13.0924 24.6503 13.0103 24.3266 12.8536 24.0382C12.6968 23.7498 12.4703 23.5052 12.1947 23.3267C11.9192 23.1483 11.6033 23.0417 11.2759 23.0166C10.9485 22.9915 10.6201 23.0487 10.3205 23.1831L10.3177 23.1844L5.97142 25.1163C5.0734 25.523 4.05242 25.565 3.12395 25.2334C2.19423 24.9013 1.43018 24.2207 0.993451 23.3355L0.990106 23.3287C0.650867 22.6267 0.369948 21.8981 0.150131 21.15L0.148705 21.1452C-0.0132209 20.5828 -0.043377 19.9907 0.0605509 19.4148C0.16446 18.839 0.399626 18.2949 0.747813 17.8246C0.747875 17.8245 0.747752 17.8247 0.747813 17.8246L7.65717 8.4874C7.87034 8.19938 8.00079 7.85852 8.03432 7.50179C8.06785 7.14507 8.00323 6.78596 7.84746 6.46328L6.61129 3.90736C6.48739 3.65119 6.36858 3.41772 6.25705 3.19887L6.24694 3.17903C6.14113 2.9714 6.03812 2.76927 5.95117 2.5855C5.86246 2.398 5.7761 2.2 5.71477 2.00591C5.65589 1.81954 5.59721 1.56814 5.62321 1.29331C5.65264 0.9822 5.78797 0.679091 6.04981 0.446881C6.2829 0.240162 6.55627 0.143351 6.77934 0.0912028Z" fill="#3E4951"/>
</svg>
